<?xml version="1.0" standalone="no"?>
<!DOCTYPE svg PUBLIC "-//W3C//DTD SVG 20010904//EN"
 "http://www.w3.org/TR/2001/REC-SVG-20010904/DTD/svg10.dtd">
<svg version="1.0" xmlns="http://www.w3.org/2000/svg"
 width="1028.000000pt" height="343.000000pt" viewBox="0 0 1028.000000 343.000000"
 preserveAspectRatio="xMidYMid meet">

<g transform="translate(0.000000,343.000000) scale(0.100000,-0.100000)"
fill="#000000" stroke="none">
<path d="M3938 1864 c-16 -8 -28 -20 -28 -27 0 -9 2 -9 8 0 4 7 23 19 42 27
19 8 28 15 20 15 -8 0 -27 -7 -42 -15z"/>
<path d="M8418 1873 c7 -3 16 -2 19 1 4 3 -2 6 -13 5 -11 0 -14 -3 -6 -6z"/>
<path d="M3675 1860 c-16 -7 -14 -8 12 -7 17 1 29 5 26 10 -5 9 -12 8 -38 -3z"/>
<path d="M8364 1848 l-19 -23 23 19 c12 11 22 21 22 23 0 8 -8 2 -26 -19z"/>
<path d="M8450 1867 c0 -4 9 -16 20 -27 11 -11 20 -16 20 -12 0 5 -9 17 -20
27 -11 10 -20 15 -20 12z"/>
<path d="M3634 1847 c-3 -8 -4 -49 -2 -93 l3 -79 5 93 c5 92 4 104 -6 79z"/>
<path d="M3750 1417 l5 -442 3 434 c1 239 -1 438 -5 442 -5 5 -6 -191 -3 -434z"/>
<path d="M4010 1856 c0 -2 7 -7 16 -10 8 -3 12 -2 9 4 -6 10 -25 14 -25 6z"/>
<path d="M967 1813 c-6 -9 283 -7 291 2 3 3 -60 5 -141 5 -80 0 -148 -3 -150
-7z"/>
<path d="M3901 1804 c0 -11 3 -14 6 -6 3 7 2 16 -1 19 -3 4 -6 -2 -5 -13z"/>
<path d="M5738 1813 c45 -2 119 -2 165 0 45 1 8 3 -83 3 -91 0 -128 -2 -82 -3z"/>
<path d="M7775 1808 c-3 -7 -4 -198 -2 -423 l2 -410 3 418 2 417 54 0 55 0 4
-35 4 -35 -1 37 -1 38 -58 3 c-40 2 -59 -1 -62 -10z"/>
<path d="M5641 1794 c0 -11 3 -14 6 -6 3 7 2 16 -1 19 -3 4 -6 -2 -5 -13z"/>
<path d="M1372 1766 c21 -12 48 -31 60 -42 21 -18 22 -18 8 0 -15 20 -84 66
-97 66 -5 0 9 -11 29 -24z"/>
<path d="M6080 1773 c14 -9 27 -19 30 -22 3 -3 14 -13 26 -21 11 -8 3 2 -19
23 -22 20 -44 37 -51 37 -6 0 1 -8 14 -17z"/>
<path d="M4024 1748 l-19 -23 23 19 c12 11 22 21 22 23 0 8 -8 2 -26 -19z"/>
<path d="M7114 1763 l55 -4 4 -47 4 -47 -1 50 -1 50 -58 1 -57 1 54 -4z"/>
<path d="M8365 1750 c10 -11 20 -20 23 -20 3 0 -3 9 -13 20 -10 11 -20 20 -23
20 -3 0 3 -9 13 -20z"/>
<path d="M9175 1760 c-4 -6 -4 -14 -1 -17 3 -4 6 -1 6 5 0 8 20 12 55 12 l54
0 3 -72 3 -73 82 -3 82 -3 4 -37 4 -37 -1 40 -1 40 -80 5 -80 5 -5 70 -5 70
-57 3 c-34 2 -59 -2 -63 -8z"/>
<path d="M956 1747 c3 -10 9 -15 12 -12 3 3 0 11 -7 18 -10 9 -11 8 -5 -6z"/>
<path d="M5642 1735 c0 -16 2 -22 5 -12 2 9 2 23 0 30 -3 6 -5 -1 -5 -18z"/>
<path d="M9170 1680 l-5 -55 -40 -6 -40 -6 43 -2 c50 -1 55 6 50 75 l-4 49 -4
-55z"/>
<path d="M1073 1695 c-3 -9 -3 -19 1 -22 3 -4 6 1 6 10 0 8 6 18 13 20 9 4 9
6 -1 6 -7 1 -15 -6 -19 -14z"/>
<path d="M1230 1706 c0 -2 9 -6 20 -9 11 -3 18 -1 14 4 -5 9 -34 13 -34 5z"/>
<path d="M5958 1703 c7 -3 16 -2 19 1 4 3 -2 6 -13 5 -11 0 -14 -3 -6 -6z"/>
<path d="M7894 1435 c0 -154 2 -216 3 -137 2 79 2 205 0 280 -1 75 -3 11 -3
-143z"/>
<path d="M1300 1687 c0 -2 15 -16 33 -33 l32 -29 -29 33 c-28 30 -36 37 -36
29z"/>
<path d="M954 1355 c0 -181 2 -257 3 -168 2 89 2 237 0 330 -1 92 -3 20 -3
-162z"/>
<path d="M5644 1530 c0 -85 2 -120 3 -77 2 42 2 112 0 155 -1 42 -3 7 -3 -78z"/>
<path d="M5764 1585 c0 -55 1 -76 3 -47 2 29 2 74 0 100 -2 26 -3 2 -3 -53z"/>
<path d="M6177 1659 c4 -13 8 -18 11 -10 2 7 -1 18 -6 23 -8 8 -9 4 -5 -13z"/>
<path d="M3630 1620 c0 -43 -12 -50 -46 -25 -10 8 -23 14 -29 15 -5 0 4 -9 20
-20 50 -33 65 -27 65 25 0 25 -2 45 -5 45 -3 0 -5 -18 -5 -40z"/>
<path d="M7055 1641 c-4 -15 -16 -21 -48 -23 -38 -3 -42 -6 -43 -31 -1 -27 -1
-27 3 -1 4 23 8 26 40 22 28 -3 38 0 50 19 9 13 13 26 10 29 -3 3 -8 -4 -12
-15z"/>
<path d="M7172 1635 c3 -18 11 -20 88 -21 84 0 84 0 10 3 -56 3 -78 8 -88 21
-13 16 -14 16 -10 -3z"/>
<path d="M6050 1635 c0 -5 5 -17 10 -25 5 -8 10 -10 10 -5 0 6 -5 17 -10 25
-5 8 -10 11 -10 5z"/>
<path d="M1791 1626 c2 -2 33 -6 69 -9 41 -3 54 -2 35 3 -31 8 -112 13 -104 6z"/>
<path d="M2745 1620 l-40 -7 35 -1 c19 0 58 3 85 8 l50 7 -45 0 c-25 0 -63 -3
-85 -7z"/>
<path d="M3405 1621 c-18 -4 3 -7 55 -7 50 0 75 3 60 7 -31 9 -76 9 -115 0z"/>
<path d="M6545 1621 c-18 -4 6 -7 58 -6 49 0 78 3 65 7 -29 8 -84 8 -123 -1z"/>
<path d="M8805 1619 c-26 -4 -9 -6 50 -6 88 -1 96 3 25 9 -19 2 -53 0 -75 -3z"/>
<path d="M1368 1593 c5 -21 7 -23 10 -9 2 10 0 22 -6 28 -6 6 -7 0 -4 -19z"/>
<path d="M1728 1613 c12 -2 30 -2 40 0 9 3 -1 5 -23 4 -22 0 -30 -2 -17 -4z"/>
<path d="M2253 1613 c15 -2 39 -2 55 0 15 2 2 4 -28 4 -30 0 -43 -2 -27 -4z"/>
<path d="M2453 1613 c15 -2 39 -2 55 0 15 2 2 4 -28 4 -30 0 -43 -2 -27 -4z"/>
<path d="M2888 1613 c7 -3 16 -2 19 1 4 3 -2 6 -13 5 -11 0 -14 -3 -6 -6z"/>
<path d="M3958 1613 c12 -2 32 -2 45 0 12 2 2 4 -23 4 -25 0 -35 -2 -22 -4z"/>
<path d="M4358 1613 c23 -2 61 -2 85 0 23 2 4 4 -43 4 -47 0 -66 -2 -42 -4z"/>
<path d="M4893 1613 c9 -2 25 -2 35 0 9 3 1 5 -18 5 -19 0 -27 -2 -17 -5z"/>
<path d="M4983 1613 c9 -2 25 -2 35 0 9 3 1 5 -18 5 -19 0 -27 -2 -17 -5z"/>
<path d="M8367 1613 c-3 -4 19 -6 48 -5 l54 4 4 -44 4 -43 -1 45 -1 45 -52 3
c-28 2 -53 -1 -56 -5z"/>
<path d="M1675 1600 c-3 -6 1 -7 9 -4 18 7 21 14 7 14 -6 0 -13 -4 -16 -10z"/>
<path d="M1960 1589 c19 -11 43 -31 53 -42 l18 -22 -10 22 c-10 20 -69 63 -87
63 -5 0 7 -9 26 -21z"/>
<path d="M2395 1600 c-3 -6 1 -7 9 -4 18 7 21 14 7 14 -6 0 -13 -4 -16 -10z"/>
<path d="M2670 1600 c-8 -5 -10 -10 -5 -10 6 0 17 5 25 10 8 5 11 10 5 10 -5
0 -17 -5 -25 -10z"/>
<path d="M2969 1581 c24 -16 50 -43 59 -60 8 -18 17 -30 19 -27 18 17 -74 116
-108 116 -8 0 6 -13 30 -29z"/>
<path d="M4500 1606 c0 -2 9 -6 20 -9 11 -3 18 -1 14 4 -5 9 -34 13 -34 5z"/>
<path d="M5064 1598 c11 -7 40 -31 65 -53 l46 -39 -35 38 c-19 21 -48 44 -65
52 -16 8 -21 9 -11 2z"/>
<path d="M6442 1583 c-23 -15 -39 -29 -37 -31 3 -3 11 0 19 7 8 6 31 20 52 31
22 11 32 19 24 20 -9 0 -35 -12 -58 -27z"/>
<path d="M6726 1596 c18 -8 35 -19 38 -25 4 -6 15 -11 24 -11 10 0 0 11 -23
25 -22 14 -47 25 -55 25 -8 -1 -1 -7 16 -14z"/>
<path d="M8950 1604 c0 -2 12 -9 26 -14 24 -10 26 -14 20 -53 -4 -29 -3 -38 4
-27 14 21 12 66 -2 77 -16 12 -48 24 -48 17z"/>
<path d="M9070 1583 c0 -18 2 -33 4 -33 9 0 13 39 5 51 -6 10 -9 4 -9 -18z"/>
<path d="M2214 1290 c0 -173 2 -244 3 -157 2 86 2 228 0 315 -1 86 -3 15 -3
-158z"/>
<path d="M4033 1540 c0 -36 2 -50 4 -32 2 17 2 47 0 65 -2 17 -4 3 -4 -33z"/>
<path d="M2330 1573 c0 -7 6 -13 14 -13 7 0 18 6 24 13 8 9 4 12 -14 12 -13 0
-24 -6 -24 -12z"/>
<path d="M2542 1565 c0 -16 2 -22 5 -12 2 9 2 23 0 30 -3 6 -5 -1 -5 -18z"/>
<path d="M2624 1576 c-3 -8 -4 -31 -2 -52 3 -36 4 -35 8 14 5 53 4 63 -6 38z"/>
<path d="M3278 1553 c-20 -21 -41 -49 -47 -63 -10 -21 -10 -22 1 -6 7 11 30
39 52 63 47 53 43 57 -6 6z"/>
<path d="M4771 1564 c-17 -14 -40 -40 -52 -57 -20 -31 -20 -31 9 3 16 19 43
45 58 57 16 13 26 23 22 23 -3 0 -20 -12 -37 -26z"/>
<path d="M8679 1573 c-13 -15 -12 -15 9 -4 23 12 28 21 13 21 -5 0 -15 -7 -22
-17z"/>
<path d="M4210 1555 c-8 -9 -8 -15 -2 -15 12 0 26 19 19 26 -2 2 -10 -2 -17
-11z"/>
<path d="M1622 1540 c0 -14 2 -19 5 -12 2 6 2 18 0 25 -3 6 -5 1 -5 -13z"/>
<path d="M3912 1278 c2 -285 6 -253 10 95 2 103 0 187 -4 187 -5 0 -7 -127 -6
-282z"/>
<path d="M8646 1543 c-6 -14 -5 -15 5 -6 7 7 10 15 7 18 -3 3 -9 -2 -12 -12z"/>
<path d="M6820 1524 c14 -17 31 -40 38 -50 7 -11 6 -7 -2 11 -8 17 -24 39 -37
50 -23 19 -22 19 1 -11z"/>
<path d="M4551 1524 c0 -11 3 -14 6 -6 3 7 2 16 -1 19 -3 4 -6 -2 -5 -13z"/>
<path d="M6361 1503 c-17 -21 -31 -42 -31 -48 0 -5 7 2 17 15 9 14 25 35 36
48 11 12 18 22 14 22 -3 0 -19 -17 -36 -37z"/>
<path d="M1368 1505 c-3 -14 -1 -25 3 -25 5 0 9 11 9 25 0 14 -2 25 -4 25 -2
0 -6 -11 -8 -25z"/>
<path d="M4186 1515 c-3 -9 -6 -22 -5 -28 0 -7 5 -1 10 12 5 13 8 26 5 28 -2
2 -6 -3 -10 -12z"/>
<path d="M2037 1498 c6 -22 33 -69 33 -56 0 9 -30 78 -34 78 -2 0 -2 -10 1
-22z"/>
<path d="M2828 1513 c6 -2 18 -2 25 0 6 3 1 5 -13 5 -14 0 -19 -2 -12 -5z"/>
<path d="M3415 1504 c-16 -8 -37 -23 -45 -32 -13 -14 -13 -15 1 -4 8 6 35 20
60 31 24 11 37 21 29 21 -8 0 -28 -7 -45 -16z"/>
<path d="M4923 1513 c9 -2 23 -2 30 0 6 3 -1 5 -18 5 -16 0 -22 -2 -12 -5z"/>
<path d="M6024 1498 l-19 -23 23 19 c21 18 27 26 19 26 -2 0 -12 -10 -23 -22z"/>
<path d="M7293 1513 c9 -2 23 -2 30 0 6 3 -1 5 -18 5 -16 0 -22 -2 -12 -5z"/>
<path d="M8624 1505 c-3 -8 -4 -20 -2 -27 3 -7 7 -1 10 15 6 29 1 36 -8 12z"/>
<path d="M9128 1513 c6 -2 18 -2 25 0 6 3 1 5 -13 5 -14 0 -19 -2 -12 -5z"/>
<path d="M9318 1513 c6 -2 18 -2 25 0 6 3 1 5 -13 5 -14 0 -19 -2 -12 -5z"/>
<path d="M2430 1500 c-18 -12 -2 -12 25 0 13 6 15 9 5 9 -8 0 -22 -4 -30 -9z"/>
<path d="M3500 1506 c0 -2 9 -6 20 -9 11 -3 18 -1 14 4 -5 9 -34 13 -34 5z"/>
<path d="M4480 1500 c8 -5 20 -10 25 -10 6 0 3 5 -5 10 -8 5 -19 10 -25 10 -5
0 -3 -5 5 -10z"/>
<path d="M5026 1488 c16 -12 32 -27 36 -33 5 -7 8 -7 8 1 0 5 -13 20 -30 32
-38 29 -51 29 -14 0z"/>
<path d="M6519 1493 c-13 -17 -13 -17 6 -3 11 8 22 16 24 17 2 2 0 3 -6 3 -6
0 -17 -8 -24 -17z"/>
<path d="M8474 1335 c0 -99 2 -138 3 -87 2 51 2 132 0 180 -1 48 -3 6 -3 -93z"/>
<path d="M8759 1493 c-13 -16 -12 -17 4 -4 16 13 21 21 13 21 -2 0 -10 -8 -17
-17z"/>
<path d="M9292 1328 c-1 -103 2 -198 8 -212 13 -34 73 -60 103 -44 67 34 71
35 64 9 -2 -11 -1 -35 3 -53 7 -29 8 -26 9 25 1 58 -10 72 -37 45 -16 -16
-108 -16 -124 0 -9 9 -15 69 -18 215 l-6 202 -2 -187z"/>
<path d="M4310 1490 c-8 -5 -12 -12 -9 -15 4 -3 12 1 19 10 14 17 11 19 -10 5z"/>
<path d="M4546 1485 c-3 -8 -1 -15 4 -15 6 0 10 7 10 15 0 8 -2 15 -4 15 -2 0
-6 -7 -10 -15z"/>
<path d="M7174 1330 c0 -96 2 -136 3 -87 2 48 2 126 0 175 -1 48 -3 8 -3 -88z"/>
<path d="M1924 1465 c9 -16 16 -47 16 -67 l0 -37 -82 -4 -83 -3 85 0 85 1 0
53 c-1 36 -6 57 -19 70 -16 16 -16 16 -2 -13z"/>
<path d="M2384 1468 l-19 -23 23 19 c21 18 27 26 19 26 -2 0 -12 -10 -23 -22z"/>
<path d="M2665 1480 c-3 -6 1 -7 9 -4 18 7 21 14 7 14 -6 0 -13 -4 -16 -10z"/>
<path d="M3550 1486 c0 -2 8 -10 18 -17 15 -13 16 -12 3 4 -13 16 -21 21 -21
13z"/>
<path d="M4849 1473 c-13 -16 -12 -17 4 -4 16 13 21 21 13 21 -2 0 -10 -8 -17
-17z"/>
<path d="M1485 1469 c-4 -6 -5 -12 -2 -15 2 -3 7 2 10 11 7 17 1 20 -8 4z"/>
<path d="M6480 1469 c0 -5 5 -7 10 -4 6 3 10 8 10 11 0 2 -4 4 -10 4 -5 0 -10
-5 -10 -11z"/>
<path d="M1340 1449 c-7 -11 -30 -29 -53 -40 -23 -10 -36 -19 -28 -19 24 0 89
42 94 61 7 25 0 24 -13 -2z"/>
<path d="M2626 1458 c3 -5 10 -6 15 -3 13 9 11 12 -6 12 -8 0 -12 -4 -9 -9z"/>
<path d="M4172 1445 c0 -16 2 -22 5 -12 2 9 2 23 0 30 -3 6 -5 -1 -5 -18z"/>
<path d="M4687 1451 c-4 -17 -3 -21 5 -13 5 5 8 16 6 23 -3 8 -7 3 -11 -10z"/>
<path d="M8741 1454 c0 -11 3 -14 6 -6 3 7 2 16 -1 19 -3 4 -6 -2 -5 -13z"/>
<path d="M4291 1445 c0 -11 6 -29 14 -39 17 -22 65 -56 80 -56 6 0 -3 8 -20
19 -37 23 -61 50 -68 76 l-5 20 -1 -20z"/>
<path d="M4816 1443 c-6 -14 -5 -15 5 -6 7 7 10 15 7 18 -3 3 -9 -2 -12 -12z"/>
<path d="M5808 1453 c17 -2 47 -2 65 0 17 2 3 4 -33 4 -36 0 -50 -2 -32 -4z"/>
<path d="M6130 1445 c-7 -8 -18 -15 -25 -15 -23 0 -4 -39 29 -61 l31 -21 -27
24 c-34 29 -34 35 -6 65 12 13 19 23 16 23 -3 0 -11 -7 -18 -15z"/>
<path d="M6737 1440 c3 -11 7 -20 9 -20 2 0 4 9 4 20 0 11 -4 20 -9 20 -5 0
-7 -9 -4 -20z"/>
<path d="M2935 1407 l0 -42 -70 -6 -70 -6 75 1 75 1 3 39 c2 21 0 42 -5 47 -4
4 -8 -11 -8 -34z"/>
<path d="M3326 1405 c-10 -24 -15 -53 -13 -62 4 -14 5 -12 6 5 0 13 10 41 20
62 11 22 16 40 11 40 -4 0 -15 -20 -24 -45z"/>
<path d="M4034 1230 c0 -124 2 -174 3 -112 2 61 2 163 0 225 -1 61 -3 11 -3
-113z"/>
<path d="M5190 1441 c0 -6 4 -13 10 -16 6 -3 7 1 4 9 -7 18 -14 21 -14 7z"/>
<path d="M6456 1435 c-9 -26 -7 -32 5 -12 6 10 9 21 6 23 -2 3 -7 -2 -11 -11z"/>
<path d="M6870 1441 c0 -6 4 -13 10 -16 6 -3 7 1 4 9 -7 18 -14 21 -14 7z"/>
<path d="M1070 1425 c0 -36 20 -45 95 -43 l70 2 -70 5 c-61 5 -71 9 -82 31
-11 22 -13 23 -13 5z"/>
<path d="M3061 1424 c0 -11 3 -14 6 -6 3 7 2 16 -1 19 -3 4 -6 -2 -5 -13z"/>
<path d="M5078 1410 c2 -16 6 -30 8 -30 2 0 4 14 4 30 0 17 -4 30 -8 30 -5 0
-7 -13 -4 -30z"/>
<path d="M6315 1429 c-4 -6 -5 -12 -2 -15 2 -3 7 2 10 11 7 17 1 20 -8 4z"/>
<path d="M3618 1393 c5 -21 7 -23 10 -9 2 10 0 22 -6 28 -6 6 -7 0 -4 -19z"/>
<path d="M4671 1404 c0 -11 3 -14 6 -6 3 7 2 16 -1 19 -3 4 -6 -2 -5 -13z"/>
<path d="M4790 1385 c0 -19 3 -35 8 -35 4 0 7 16 7 35 0 19 -3 35 -7 35 -5 0
-8 -16 -8 -35z"/>
<path d="M9174 1290 c0 -69 1 -97 3 -62 2 34 2 90 0 125 -2 34 -3 6 -3 -63z"/>
<path d="M4187 1380 c3 -11 7 -20 9 -20 2 0 4 9 4 20 0 11 -4 20 -9 20 -5 0
-7 -9 -4 -20z"/>
<path d="M6430 1385 c0 -8 2 -15 4 -15 2 0 6 7 10 15 3 8 1 15 -4 15 -6 0 -10
-7 -10 -15z"/>
<path d="M8785 1375 c22 -14 45 -25 50 -25 6 0 -10 11 -34 25 -56 32 -68 32
-16 0z"/>
<path d="M6892 1345 c0 -27 4 -61 8 -75 6 -20 8 -14 8 25 0 28 -4 61 -8 75 -6
20 -8 14 -8 -25z"/>
<path d="M2341 1368 c-1 -10 -5 -18 -11 -18 -5 0 -7 -7 -3 -17 5 -14 8 -12 15
7 5 13 7 28 4 34 -2 6 -5 3 -5 -6z"/>
<path d="M4280 1370 c0 -5 5 -10 11 -10 5 0 7 5 4 10 -3 6 -8 10 -11 10 -2 0
-4 -4 -4 -10z"/>
<path d="M4663 1333 c-1 -33 0 -35 8 -15 5 13 5 30 1 38 -5 9 -8 1 -9 -23z"/>
<path d="M2062 1335 c0 -16 2 -22 5 -12 2 9 2 23 0 30 -3 6 -5 -1 -5 -18z"/>
<path d="M6302 1335 c0 -16 2 -22 5 -12 2 9 2 23 0 30 -3 6 -5 -1 -5 -18z"/>
<path d="M8640 1352 c0 -5 10 -17 22 -28 l21 -19 -18 28 c-18 28 -25 33 -25
19z"/>
<path d="M1715 1340 c-3 -6 1 -7 9 -4 18 7 21 14 7 14 -6 0 -13 -4 -16 -10z"/>
<path d="M2720 1340 c-9 -6 -10 -10 -3 -10 6 0 15 5 18 10 8 12 4 12 -15 0z"/>
<path d="M3633 1300 c0 -30 2 -43 4 -27 2 15 2 39 0 55 -2 15 -4 2 -4 -28z"/>
<path d="M4417 1339 c7 -7 15 -10 18 -7 3 3 -2 9 -12 12 -14 6 -15 5 -6 -5z"/>
<path d="M5767 1343 c-4 -3 -6 -58 -5 -122 l2 -116 5 115 6 115 80 6 80 5 -81
2 c-44 1 -84 -1 -87 -5z"/>
<path d="M8857 1339 c7 -7 15 -10 18 -7 3 3 -2 9 -12 12 -14 6 -15 5 -6 -5z"/>
<path d="M5644 1185 c0 -88 2 -123 3 -77 2 46 2 118 0 160 -1 42 -3 5 -3 -83z"/>
<path d="M6176 1327 c3 -10 9 -15 12 -12 3 3 0 11 -7 18 -10 9 -11 8 -5 -6z"/>
<path d="M1675 1320 c-3 -6 1 -7 9 -4 18 7 21 14 7 14 -6 0 -13 -4 -16 -10z"/>
<path d="M3183 1290 c0 -25 2 -35 4 -22 2 12 2 32 0 45 -2 12 -4 2 -4 -23z"/>
<path d="M4450 1326 c0 -3 9 -10 20 -16 11 -6 20 -8 20 -6 0 3 -9 10 -20 16
-11 6 -20 8 -20 6z"/>
<path d="M8890 1326 c0 -2 16 -13 36 -25 19 -12 32 -16 29 -11 -7 11 -65 43
-65 36z"/>
<path d="M5211 1304 c0 -11 3 -14 6 -6 3 7 2 16 -1 19 -3 4 -6 -2 -5 -13z"/>
<path d="M6422 1290 c0 -19 2 -27 5 -17 2 9 2 25 0 35 -3 9 -5 1 -5 -18z"/>
<path d="M1639 1293 c-13 -16 -12 -17 4 -4 9 7 17 15 17 17 0 8 -8 3 -21 -13z"/>
<path d="M2619 1273 l-24 -28 28 24 c25 23 32 31 24 31 -2 0 -14 -12 -28 -27z"/>
<path d="M6196 1287 c3 -10 9 -15 12 -12 3 3 0 11 -7 18 -10 9 -11 8 -5 -6z"/>
<path d="M6772 1275 c0 -16 2 -22 5 -12 2 9 2 23 0 30 -3 6 -5 -1 -5 -18z"/>
<path d="M4528 1274 c6 -11 20 -28 33 -39 l23 -20 -23 32 c-26 38 -49 56 -33
27z"/>
<path d="M8785 1280 c-3 -5 -1 -10 4 -10 6 0 11 5 11 10 0 6 -2 10 -4 10 -3 0
-8 -4 -11 -10z"/>
<path d="M1082 1268 c-7 -7 -12 -21 -11 -32 1 -18 2 -17 8 4 4 14 17 27 31 31
21 6 22 7 5 8 -12 1 -26 -4 -33 -11z"/>
<path d="M1208 1273 c7 -3 16 -2 19 1 4 3 -2 6 -13 5 -11 0 -14 -3 -6 -6z"/>
<path d="M8986 1260 c12 -14 24 -32 27 -40 5 -13 6 -13 6 1 1 8 -11 26 -26 40
l-28 24 21 -25z"/>
<path d="M1605 1260 c-3 -5 -1 -10 4 -10 6 0 11 5 11 10 0 6 -2 10 -4 10 -3 0
-8 -4 -11 -10z"/>
<path d="M2910 1256 c0 -2 9 -6 20 -9 11 -3 18 -1 14 4 -5 9 -34 13 -34 5z"/>
<path d="M6302 1240 c0 -14 2 -19 5 -12 2 6 2 18 0 25 -3 6 -5 1 -5 -13z"/>
<path d="M3310 1229 c0 -13 5 -31 10 -39 7 -11 8 -5 4 20 -8 43 -14 51 -14 19z"/>
<path d="M4350 1246 c0 -2 7 -7 16 -10 8 -3 12 -2 9 4 -6 10 -25 14 -25 6z"/>
<path d="M4813 1243 c9 -2 25 -2 35 0 9 3 1 5 -18 5 -19 0 -27 -2 -17 -5z"/>
<path d="M4953 1243 c48 -2 125 -2 170 0 45 1 6 3 -88 3 -93 0 -130 -2 -82 -3z"/>
<path d="M6213 1200 c0 -30 2 -43 4 -27 2 15 2 39 0 55 -2 15 -4 2 -4 -28z"/>
<path d="M6892 1220 c0 -14 2 -19 5 -12 2 6 2 18 0 25 -3 6 -5 1 -5 -13z"/>
<path d="M1586 1199 c-8 -42 0 -50 9 -9 4 17 5 34 2 36 -2 3 -7 -10 -11 -27z"/>
<path d="M2587 1211 c-4 -17 -3 -21 5 -13 5 5 8 16 6 23 -3 8 -7 3 -11 -10z"/>
<path d="M8875 1200 c10 -11 20 -20 23 -20 3 0 -3 9 -13 20 -10 11 -20 20 -23
20 -3 0 3 -9 13 -20z"/>
<path d="M3613 1179 c-12 -30 -11 -32 3 -17 9 8 14 23 12 33 -2 12 -7 7 -15
-16z"/>
<path d="M4430 1206 c0 -2 8 -10 18 -17 15 -13 16 -12 3 4 -13 16 -21 21 -21
13z"/>
<path d="M4671 1194 c0 -11 3 -14 6 -6 3 7 2 16 -1 19 -3 4 -6 -2 -5 -13z"/>
<path d="M6430 1201 c0 -6 4 -13 10 -16 6 -3 7 1 4 9 -7 18 -14 21 -14 7z"/>
<path d="M2703 1184 c-13 -35 34 -120 55 -99 3 3 0 5 -6 5 -17 0 -44 59 -39
86 5 27 -1 32 -10 8z"/>
<path d="M3191 1184 c0 -11 3 -14 6 -6 3 7 2 16 -1 19 -3 4 -6 -2 -5 -13z"/>
<path d="M4580 1184 c0 -10 5 -26 10 -34 8 -11 9 -7 4 15 -8 37 -14 45 -14 19z"/>
<path d="M6077 1168 c-4 -13 -16 -33 -27 -46 -13 -14 -16 -22 -8 -22 14 0 55
77 46 86 -3 2 -8 -5 -11 -18z"/>
<path d="M2932 1146 c-15 -41 -32 -56 -75 -66 -29 -7 -30 -8 -6 -9 15 -1 38 8
51 19 24 19 55 76 46 85 -2 3 -10 -11 -16 -29z"/>
<path d="M6732 1142 l-23 -37 26 28 c14 15 25 32 25 38 0 14 -3 11 -28 -29z"/>
<path d="M4460 1133 c-3 -23 -2 -39 3 -34 5 5 7 24 5 42 -3 33 -4 33 -8 -8z"/>
<path d="M4831 1138 c13 -21 28 -38 32 -38 12 0 -8 33 -34 55 -21 20 -21 19 2
-17z"/>
<path d="M6156 1155 c4 -8 8 -15 10 -15 2 0 4 7 4 15 0 8 -4 15 -10 15 -5 0
-7 -7 -4 -15z"/>
<path d="M6450 1163 c1 -11 31 -46 55 -63 15 -11 14 -7 -5 15 -42 49 -50 57
-50 48z"/>
<path d="M1589 1118 c4 -28 6 -29 9 -9 2 13 0 27 -5 32 -6 6 -7 -3 -4 -23z"/>
<path d="M3360 1120 c12 -16 26 -30 33 -30 6 0 -2 14 -18 30 -16 17 -30 30
-33 30 -2 0 6 -13 18 -30z"/>
<path d="M2581 1135 c1 -19 18 -51 18 -35 0 8 -4 22 -9 30 -5 8 -9 11 -9 5z"/>
<path d="M3579 1123 c-13 -16 -12 -17 4 -4 16 13 21 21 13 21 -2 0 -10 -8 -17
-17z"/>
<path d="M7060 1131 c0 -6 4 -13 10 -16 6 -3 7 1 4 9 -7 18 -14 21 -14 7z"/>
<path d="M7181 1129 c-1 -17 29 -49 45 -49 5 0 1 5 -9 11 -10 6 -22 20 -27 32
-6 15 -9 17 -9 6z"/>
<path d="M7891 1119 c-1 -30 15 -40 62 -38 29 2 29 2 -8 8 -31 5 -41 11 -46
31 l-7 25 -1 -26z"/>
<path d="M6095 1120 c-3 -5 -1 -10 4 -10 6 0 11 5 11 10 0 6 -2 10 -4 10 -3 0
-8 -4 -11 -10z"/>
<path d="M6856 1113 c-6 -14 -5 -15 5 -6 7 7 10 15 7 18 -3 3 -9 -2 -12 -12z"/>
<path d="M8900 1116 c0 -25 -56 -39 -128 -33 l-67 6 44 -14 c47 -15 88 -11
134 12 22 11 39 43 22 43 -3 0 -5 -6 -5 -14z"/>
<path d="M8622 1095 c0 -16 2 -22 5 -12 2 9 2 23 0 30 -3 6 -5 -1 -5 -18z"/>
<path d="M3542 1098 c-6 -6 -38 -12 -71 -12 -42 -1 -54 -3 -39 -9 29 -10 104
2 119 19 14 17 8 19 -9 2z"/>
<path d="M4243 1094 c15 -8 51 -17 80 -19 l52 -4 -55 10 c-30 5 -59 14 -64 19
-6 6 -17 10 -25 10 -9 -1 -4 -7 12 -16z"/>
<path d="M4887 1099 c7 -7 15 -10 18 -7 3 3 -2 9 -12 12 -14 6 -15 5 -6 -5z"/>
<path d="M5110 1100 c-8 -5 -10 -10 -5 -10 6 0 17 5 25 10 8 5 11 10 5 10 -5
0 -17 -5 -25 -10z"/>
<path d="M6181 1087 c-13 -21 -12 -21 5 -5 10 10 16 20 13 22 -3 3 -11 -5 -18
-17z"/>
<path d="M6680 1100 c-8 -4 -26 -13 -40 -19 -24 -10 -24 -10 5 -4 17 3 37 12
45 19 16 16 13 17 -10 4z"/>
<path d="M7347 1053 c2 -72 9 -78 12 -9 1 30 -2 57 -6 59 -5 3 -7 -20 -6 -50z"/>
<path d="M8670 1100 c8 -5 20 -10 25 -10 6 0 3 5 -5 10 -8 5 -19 10 -25 10 -5
0 -3 -5 5 -10z"/>
<path d="M5167 1093 c-3 -5 -1 -26 3 -48 l8 -40 -1 47 c-2 50 -3 53 -10 41z"/>
<path d="M5769 1087 c5 -5 24 -7 42 -5 33 3 33 4 -8 8 -23 3 -39 2 -34 -3z"/>
<path d="M9007 1084 c3 -7 -5 -27 -17 -44 -12 -16 -19 -30 -16 -30 6 0 56 72
56 81 0 3 -6 6 -14 6 -8 0 -12 -6 -9 -13z"/>
<path d="M4403 1083 c-13 -2 -23 -8 -23 -12 0 -13 39 -10 51 5 6 8 8 13 3 13
-5 -1 -19 -4 -31 -6z"/>
<path d="M4740 1065 c13 -14 25 -25 27 -25 9 0 -33 49 -41 50 -5 0 1 -11 14
-25z"/>
<path d="M4950 1078 c19 -5 44 -9 55 -9 11 0 36 4 55 9 27 6 14 8 -55 8 -69 0
-82 -2 -55 -8z"/>
<path d="M5938 1083 c12 -2 32 -2 45 0 12 2 2 4 -23 4 -25 0 -35 -2 -22 -4z"/>
<path d="M8058 1083 c29 -2 74 -2 100 0 26 2 2 3 -53 3 -55 0 -76 -1 -47 -3z"/>
<path d="M6570 1070 c8 -5 20 -10 25 -10 6 0 3 5 -5 10 -8 5 -19 10 -25 10 -5
0 -3 -5 5 -10z"/>
<path d="M7248 1073 c6 -2 18 -2 25 0 6 3 1 5 -13 5 -14 0 -19 -2 -12 -5z"/>
<path d="M8243 1040 c0 -25 2 -35 4 -22 2 12 2 32 0 45 -2 12 -4 2 -4 -23z"/>
<path d="M1818 1063 c6 -2 18 -2 25 0 6 3 1 5 -13 5 -14 0 -19 -2 -12 -5z"/>
<path d="M4549 1043 c-13 -16 -12 -17 4 -4 16 13 21 21 13 21 -2 0 -10 -8 -17
-17z"/>
<path d="M7088 1045 c6 -11 21 -29 34 -40 22 -19 22 -19 -2 10 -40 48 -43 51
-32 30z"/>
<path d="M8622 1035 c0 -16 2 -22 5 -12 2 9 2 23 0 30 -3 6 -5 -1 -5 -18z"/>
<path d="M3585 1040 c-3 -5 -1 -10 4 -10 6 0 11 5 11 10 0 6 -2 10 -4 10 -3 0
-8 -4 -11 -10z"/>
<path d="M6720 1040 c0 -6 7 -10 15 -10 8 0 15 2 15 4 0 2 -7 6 -15 10 -8 3
-15 1 -15 -4z"/>
<path d="M2630 1027 c0 -3 12 -12 26 -22 15 -9 23 -12 20 -6 -7 11 -46 35 -46
28z"/>
<path d="M3280 1026 c0 -2 12 -12 28 -21 l27 -18 -19 21 c-17 20 -36 29 -36
18z"/>
<path d="M4460 1020 c0 -5 5 -10 11 -10 5 0 7 5 4 10 -3 6 -8 10 -11 10 -2 0
-4 -4 -4 -10z"/>
<path d="M7295 1020 c3 -5 8 -10 11 -10 2 0 4 5 4 10 0 6 -5 10 -11 10 -5 0
-7 -4 -4 -10z"/>
<path d="M8361 1014 c0 -11 3 -14 6 -6 3 7 2 16 -1 19 -3 4 -6 -2 -5 -13z"/>
<path d="M2926 1013 c-11 -11 -7 -20 9 -20 8 0 15 4 15 8 0 11 -16 20 -24 12z"/>
<path d="M4180 1016 c0 -2 8 -10 18 -17 15 -13 16 -12 3 4 -13 16 -21 21 -21
13z"/>
<path d="M8940 1004 c0 -8 5 -12 10 -9 6 4 8 11 5 16 -9 14 -15 11 -15 -7z"/>
<path d="M1916 1002 c-2 -4 4 -8 15 -8 10 0 19 4 19 8 0 10 -27 10 -34 0z"/>
<path d="M3631 994 c0 -11 3 -14 6 -6 3 7 2 16 -1 19 -3 4 -6 -2 -5 -13z"/>
<path d="M1866 981 c-4 -5 3 -7 14 -4 23 6 26 13 6 13 -8 0 -17 -4 -20 -9z"/>
<path d="M3548 983 c7 -3 16 -2 19 1 4 3 -2 6 -13 5 -11 0 -14 -3 -6 -6z"/>
<path d="M4230 986 c0 -2 11 -6 25 -8 13 -3 22 -1 19 3 -5 9 -44 13 -44 5z"/>
<path d="M5080 980 c-18 -12 -2 -12 25 0 13 6 15 9 5 9 -8 0 -22 -4 -30 -9z"/>
<path d="M6480 986 c0 -2 7 -6 15 -10 8 -3 15 -1 15 4 0 6 -7 10 -15 10 -8 0
-15 -2 -15 -4z"/>
<path d="M6696 981 c-4 -5 3 -7 14 -4 23 6 26 13 6 13 -8 0 -17 -4 -20 -9z"/>
<path d="M9280 986 c0 -2 7 -7 16 -10 8 -3 12 -2 9 4 -6 10 -25 14 -25 6z"/>
<path d="M9426 981 c-4 -5 3 -7 14 -4 23 6 26 13 6 13 -8 0 -17 -4 -20 -9z"/>
<path d="M5998 973 c7 -3 16 -2 19 1 4 3 -2 6 -13 5 -11 0 -14 -3 -6 -6z"/>
<path d="M2298 963 c7 -3 16 -2 19 1 4 3 -2 6 -13 5 -11 0 -14 -3 -6 -6z"/>
<path d="M3453 963 c9 -2 23 -2 30 0 6 3 -1 5 -18 5 -16 0 -22 -2 -12 -5z"/>
<path d="M6558 963 c17 -2 47 -2 65 0 17 2 3 4 -33 4 -36 0 -50 -2 -32 -4z"/>
</g>
</svg>
