<?xml version="1.0" standalone="no"?>
<!DOCTYPE svg PUBLIC "-//W3C//DTD SVG 20010904//EN"
 "http://www.w3.org/TR/2001/REC-SVG-20010904/DTD/svg10.dtd">
<svg version="1.0" xmlns="http://www.w3.org/2000/svg"
 width="128.000000pt" height="128.000000pt" viewBox="0 0 128.000000 128.000000"
 preserveAspectRatio="xMidYMid meet">

<g transform="translate(0.000000,128.000000) scale(0.100000,-0.100000)"
fill="#000000" stroke="none">
<path d="M735 685 c-14 -13 -25 -36 -25 -50 0 -32 50 -85 80 -85 32 0 70 44
70 80 0 38 -39 80 -75 80 -14 0 -37 -11 -50 -25z"/>
<path d="M480 610 c-44 -44 -8 -130 55 -130 24 0 39 7 54 26 27 34 27 64 0 98
-26 33 -79 36 -109 6z"/>
</g>
</svg>
