<?xml version="1.0" standalone="no"?>
<!DOCTYPE svg PUBLIC "-//W3C//DTD SVG 20010904//EN"
 "http://www.w3.org/TR/2001/REC-SVG-20010904/DTD/svg10.dtd">
<svg version="1.0" xmlns="http://www.w3.org/2000/svg"
 width="128.000000pt" height="128.000000pt" viewBox="0 0 128.000000 128.000000"
 preserveAspectRatio="xMidYMid meet">

<g transform="translate(0.000000,128.000000) scale(0.100000,-0.100000)"
fill="#000000" stroke="none">
<path d="M749 944 c132 -24 136 -32 16 -31 -119 1 -178 -12 -293 -64 -42 -19
-61 -32 -56 -40 4 -7 3 -9 -3 -6 -6 4 -31 -9 -57 -29 -25 -19 -46 -31 -46 -26
0 5 7 15 15 22 9 7 14 19 11 26 -3 8 -2 13 3 11 4 -1 29 15 56 36 27 20 44 37
38 37 -16 0 -98 -63 -127 -96 -28 -34 -34 -50 -13 -38 8 6 8 3 -1 -9 -30 -36
-23 -300 9 -385 13 -35 82 -62 161 -62 58 0 69 3 82 22 24 35 19 45 -25 52
-42 7 -104 34 -96 42 2 3 35 0 72 -6 151 -24 324 31 434 139 17 17 36 31 41
31 11 0 -25 -63 -45 -80 -8 -7 -12 -17 -8 -23 3 -5 2 -7 -3 -4 -6 3 -16 2 -23
-3 -10 -6 -7 -12 14 -26 27 -18 28 -17 80 10 53 27 115 98 115 130 0 51 -94
224 -172 318 -46 56 -81 68 -183 67 l-70 -1 74 -14z m92 -251 c13 -17 13 -17
-6 -3 -11 8 -22 16 -24 17 -2 2 0 3 6 3 6 0 17 -8 24 -17z m-288 -60 c-7 -2
-21 -2 -30 0 -10 3 -4 5 12 5 17 0 24 -2 18 -5z m38 -20 c13 -16 12 -17 -3 -4
-17 13 -22 21 -14 21 2 0 10 -8 17 -17z m172 -62 c-4 -6 -53 41 -53 50 0 4 13
-4 28 -19 15 -15 26 -29 25 -31z m-278 -51 l20 -25 -22 19 c-13 11 -23 24 -23
29 0 6 1 8 3 6 1 -2 11 -15 22 -29z m115 6 c0 -2 -8 -10 -17 -17 -16 -13 -17
-12 -4 4 13 16 21 21 21 13z m-47 -33 c-7 -2 -21 -2 -30 0 -10 3 -4 5 12 5 17
0 24 -2 18 -5z"/>
</g>
</svg>
